<svg width="63" height="21" viewBox="0 0 63 21" fill="none" xmlns="http://www.w3.org/2000/svg">
<path d="M5.47083 15.6752C4.91883 15.6752 4.38183 15.6032 3.85983 15.4592C3.33783 15.3152 2.77683 15.0902 2.17683 14.7842L1.55583 15.5132H0.997828L0.646828 10.9502L1.39383 10.8332C1.77783 12.1712 2.28483 13.1402 2.91483 13.7402C3.55083 14.3402 4.39383 14.6402 5.44383 14.6402C6.19383 14.6402 6.79083 14.4602 7.23483 14.1002C7.68483 13.7402 7.90983 13.2452 7.90983 12.6152C7.90983 12.2372 7.75083 11.8862 7.43283 11.5622C7.12083 11.2322 6.58083 10.8812 5.81283 10.5092L4.36383 9.78918C3.18783 9.20718 2.32383 8.56218 1.77183 7.85418C1.21983 7.14618 0.943828 6.32118 0.943828 5.37918C0.943828 4.65318 1.14483 4.00818 1.54683 3.44418C1.94883 2.87418 2.49183 2.42718 3.17583 2.10318C3.86583 1.77918 4.64583 1.61718 5.51583 1.61718C6.73383 1.61718 7.77783 1.98618 8.64783 2.72418L9.07083 1.77918H9.66483L9.83583 5.72118H9.05283C8.75883 4.70718 8.32683 3.94518 7.75683 3.43518C7.19283 2.92518 6.47583 2.67018 5.60583 2.67018C4.99383 2.67018 4.51683 2.82018 4.17483 3.12018C3.83283 3.42018 3.66183 3.83418 3.66183 4.36218C3.66183 4.77018 3.81483 5.13618 4.12083 5.46018C4.42683 5.77818 4.95783 6.12918 5.71383 6.51318L7.13583 7.24218C8.26383 7.81818 9.07383 8.45118 9.56583 9.14118C10.0638 9.83118 10.3128 10.6592 10.3128 11.6252C10.3128 12.3932 10.0998 13.0832 9.67383 13.6952C9.24783 14.3072 8.66883 14.7902 7.93683 15.1442C7.20483 15.4982 6.38283 15.6752 5.47083 15.6752ZM15.4365 15.7022C14.5125 15.7022 13.8555 15.5012 13.4655 15.0992C13.0755 14.6972 12.8805 14.0522 12.8805 13.1642V6.96318H11.6205L11.5125 6.41418L15.1035 3.67818L15.6525 3.76818V6.07218H18.4065L18.1455 6.96318H15.6525V12.9842C15.6525 13.9382 16.0245 14.4152 16.7685 14.4152C16.9785 14.4152 17.1765 14.3792 17.3625 14.3072C17.5485 14.2352 17.7195 14.1062 17.8755 13.9202L18.2895 14.4962C17.9775 14.8922 17.5725 15.1922 17.0745 15.3962C16.5765 15.6002 16.0305 15.7022 15.4365 15.7022ZM20.9147 20.1482C20.3327 20.1482 19.8347 20.0192 19.4207 19.7612C19.0127 19.5032 18.8087 19.1192 18.8087 18.6092C18.8087 18.2672 18.9227 17.9942 19.1507 17.7902C19.3787 17.5862 19.6487 17.4842 19.9607 17.4842C20.2247 17.4842 20.4587 17.5592 20.6627 17.7092C20.8727 17.8592 21.0227 18.0872 21.1127 18.3932C21.1967 18.6752 21.2777 18.8582 21.3557 18.9422C21.4337 19.0322 21.5537 19.0772 21.7157 19.0772C21.9257 19.0772 22.1327 18.9722 22.3367 18.7622C22.5407 18.5522 22.7087 18.2642 22.8407 17.8982L23.5427 16.0082L19.7447 7.41318C19.6427 7.18518 19.4897 7.02018 19.2857 6.91818C19.0817 6.81018 18.7577 6.73518 18.3137 6.69318V6.07218H24.1277V6.69318C23.7497 6.72318 23.4587 6.77118 23.2547 6.83718C23.0567 6.90318 22.9337 6.99618 22.8857 7.11618C22.8377 7.23618 22.8527 7.39218 22.9307 7.58418L25.0007 12.4622H25.0907L26.8817 8.10618C27.0857 7.64418 27.0857 7.30218 26.8817 7.08018C26.6837 6.85818 26.2637 6.72918 25.6217 6.69318V6.07218H29.9057V6.69318C29.4677 6.77718 29.1317 6.87018 28.8977 6.97218C28.6637 7.07418 28.4807 7.21518 28.3487 7.39518C28.2167 7.56918 28.0847 7.81218 27.9527 8.12418L23.8487 18.0242C23.6807 18.4142 23.5007 18.7442 23.3087 19.0142C23.1167 19.2842 22.9067 19.5062 22.6787 19.6802C22.2407 19.9922 21.6527 20.1482 20.9147 20.1482ZM29.7059 15.5132V14.8832L31.2359 14.5322V2.49018L29.7059 2.01318V1.58118L33.6029 0.726182H33.9809V14.5322L35.4119 14.8832V15.5132H29.7059ZM36.1776 15.5132V14.8832L37.6986 14.5322V7.65618L36.1776 7.17018V6.74718L40.0836 5.89218H40.4616V14.5322L41.8836 14.8832V15.5132H36.1776ZM39.0486 4.56018C38.5566 4.56018 38.1786 4.40718 37.9146 4.10118C37.6506 3.79518 37.5186 3.46218 37.5186 3.10218C37.5186 2.71218 37.6536 2.36718 37.9236 2.06718C38.1996 1.76718 38.5746 1.61718 39.0486 1.61718C39.5346 1.61718 39.9186 1.76718 40.2006 2.06718C40.4886 2.36718 40.6326 2.71218 40.6326 3.10218C40.6326 3.46218 40.4976 3.79518 40.2276 4.10118C39.9636 4.40718 39.5706 4.56018 39.0486 4.56018ZM45.9416 15.7022C45.4856 15.7022 45.0026 15.6662 44.4926 15.5942C43.9826 15.5282 43.5446 15.4352 43.1786 15.3152L43.0616 12.4172H43.8266C43.8806 13.1912 44.0816 13.7852 44.4296 14.1992C44.7836 14.6072 45.2696 14.8112 45.8876 14.8112C46.3496 14.8112 46.7186 14.6942 46.9946 14.4602C47.2706 14.2202 47.4086 13.9082 47.4086 13.5242C47.4086 13.2242 47.3006 12.9572 47.0846 12.7232C46.8746 12.4832 46.5146 12.2282 46.0046 11.9582L45.1406 11.5172C44.4326 11.1452 43.9106 10.7312 43.5746 10.2752C43.2446 9.81918 43.0796 9.27618 43.0796 8.64618C43.0796 7.74018 43.4096 7.05618 44.0696 6.59418C44.7356 6.12618 45.7136 5.89218 47.0036 5.89218C47.4596 5.89218 47.8976 5.92218 48.3176 5.98218C48.7436 6.03618 49.0856 6.11118 49.3436 6.20718V8.67318H48.6596C48.4856 7.41318 47.8916 6.78318 46.8776 6.78318C46.4696 6.78318 46.1396 6.88218 45.8876 7.08018C45.6416 7.27818 45.5186 7.53618 45.5186 7.85418C45.5186 8.13618 45.6296 8.39118 45.8516 8.61918C46.0736 8.84118 46.4576 9.08418 47.0036 9.34818L47.8586 9.78918C48.5246 10.1312 49.0166 10.5332 49.3346 10.9952C49.6526 11.4512 49.8116 12.0032 49.8116 12.6512C49.8116 13.6112 49.4726 14.3612 48.7946 14.9012C48.1166 15.4352 47.1656 15.7022 45.9416 15.7022ZM50.8532 15.5132V14.8832L52.1852 14.5322V2.50818L50.8442 2.01318V1.59918L54.5702 0.726182H54.9572V14.5322L56.1992 14.8832V15.5132H50.8532ZM57.1802 15.5132V14.8832L58.4312 14.5322V9.65418C58.4312 8.92218 58.2842 8.38218 57.9902 8.03418C57.6962 7.68018 57.2552 7.50318 56.6672 7.50318C56.3012 7.50318 55.9592 7.57518 55.6412 7.71918C55.3232 7.86318 55.0232 8.06118 54.7412 8.31318V7.18818C55.2032 6.82818 55.7492 6.52218 56.3792 6.27018C57.0152 6.01818 57.6662 5.89218 58.3322 5.89218C60.2402 5.89218 61.1942 6.93618 61.1942 9.02418V14.5322L62.5352 14.8832V15.5132H57.1802Z" fill="#4392F9"/>
</svg>
